<svg xmlns="http://www.w3.org/2000/svg" viewBox="0 0 900 200" width="900" height="200">
  <defs>
    <linearGradient id="bgSf" x1="0%" y1="0%" x2="100%" y2="100%">
      <stop offset="0%" style="stop-color:#0a0a0a"/>
      <stop offset="50%" style="stop-color:#0d1117"/>
      <stop offset="100%" style="stop-color:#161b22"/>
    </linearGradient>
    <linearGradient id="accentSf" x1="0%" y1="0%" x2="100%" y2="100%">
      <stop offset="0%" style="stop-color:#00ff88"/>
      <stop offset="100%" style="stop-color:#00b4d8"/>
    </linearGradient>
    <linearGradient id="scanlineSf" x1="0%" y1="0%" x2="100%" y2="0%">
      <stop offset="0%" style="stop-color:transparent"/>
      <stop offset="50%" style="stop-color:#00ff88;stop-opacity:0.12"/>
      <stop offset="100%" style="stop-color:transparent"/>
    </linearGradient>
    <filter id="glowSf"><feGaussianBlur stdDeviation="3"/><feMerge><feMergeNode/><feMergeNode in="SourceGraphic"/></feMerge></filter>
    <filter id="glowStrongSf"><feGaussianBlur stdDeviation="5"/><feMerge><feMergeNode/><feMergeNode in="SourceGraphic"/></feMerge></filter>
    <clipPath id="clipSf"><rect width="900" height="200" rx="16"/></clipPath>
  </defs>
  <g clip-path="url(#clipSf)">
    <rect width="900" height="200" rx="16" fill="url(#bgSf)"/>
    <rect width="900" height="200" rx="16" fill="none" stroke="#00ff88" stroke-width="1" opacity="0.2"/>
    <g opacity="0.03">
      <line x1="0" y1="50" x2="900" y2="50" stroke="#00ff88" stroke-width="1"/>
      <line x1="0" y1="100" x2="900" y2="100" stroke="#00ff88" stroke-width="1"/>
      <line x1="0" y1="150" x2="900" y2="150" stroke="#00ff88" stroke-width="1"/>
    </g>
    <rect x="0" y="0" width="900" height="200" fill="url(#scanlineSf)" opacity="0">
      <animate attributeName="opacity" values="0;1;0" dur="3.5s" repeatCount="indefinite"/>
    </rect>
    <g transform="translate(55,100)">
      <g filter="url(#glowSf)">
        <g transform="translate(0,-35) scale(0.5)" opacity="0.3">
          <path d="M-20,0 L-20,20 Q-20,40 0,50 Q20,40 20,20 L20,0 Q10,-10 0,-20 Q-10,-10-20,0Z" fill="#00ff88"/>
          <path d="M-8,12 L0,20 L8,5" fill="none" stroke="#0d1117" stroke-width="3" stroke-linecap="round" stroke-linejoin="round"/>
        </g>
        <path d="M-50,0 Q-25,-25 0,0 Q25,25 50,0" fill="none" stroke="#30363d" stroke-width="3"/>
        <path d="M-50,0 Q-25,-25 0,0 Q25,25 50,0" fill="none" stroke="url(#accentSf)" stroke-width="3" stroke-dasharray="8 12">
          <animate attributeName="stroke-dashoffset" from="0" to="-40" dur="1s" repeatCount="indefinite"/>
        </path>
        <circle cx="-50" cy="0" r="6" fill="#00ff88"/>
        <circle cx="0" cy="0" r="6" fill="#00b4d8"/>
        <circle cx="50" cy="0" r="6" fill="#00ff88"/>
        <path d="M-3,0 L0,3 L5,-3" fill="none" stroke="#0d1117" stroke-width="2" stroke-linecap="round" stroke-linejoin="round"/>
        <circle r="3.5" fill="#00ff88" opacity="0.8">
          <animate attributeName="cx" values="-30;30" dur="1.5s" repeatCount="indefinite"/>
          <animate attributeName="cy" values="-17;17" dur="1.5s" repeatCount="indefinite"/>
          <animate attributeName="opacity" values="0.8;0" dur="1.5s" repeatCount="indefinite"/>
        </circle>
        <circle r="2.5" fill="#00b4d8" opacity="0.6">
          <animate attributeName="cx" values="-20;40" dur="1.8s" repeatCount="indefinite"/>
          <animate attributeName="cy" values="-12;22" dur="1.8s" repeatCount="indefinite"/>
          <animate attributeName="opacity" values="0.6;0" dur="1.8s" repeatCount="indefinite"/>
        </circle>
      </g>
    </g>
    <g transform="translate(180,60)">
      <text x="0" y="0" font-family="monospace" font-size="42" font-weight="bold" fill="#00ff88" filter="url(#glowStrongSf)">
        SecureFlow
        <animate attributeName="opacity" values="1;0.92;1" dur="2.2s" repeatCount="indefinite"/>
      </text>
      <text x="0" y="0" font-family="monospace" font-size="42" font-weight="bold" fill="#00ff88" opacity="0.2">
        <animate attributeName="opacity" values="0.2;0.5;0.2" dur="0.05s" repeatCount="indefinite"/>
        SecureFlow
      </text>
      <text x="0" y="30" font-family="monospace" font-size="13" fill="#888" letter-spacing="3">AUTOMATED INCIDENT RESPONSE ORCHESTRATOR</text>
      <text x="0" y="50" font-family="monospace" font-size="11" fill="#666" letter-spacing="1">n8n · SOAR · THREAT INTELLIGENCE · WEBHOOKS</text>
    </g>
    <g transform="translate(780, 170)" opacity="0.35">
      <text font-family="monospace" font-size="9" fill="#00ff88">SOAR</text>
    </g>
  </g>
</svg>